<svg width="58" height="60" viewBox="0 0 58 60" fill="none" xmlns="http://www.w3.org/2000/svg">
<path d="M54.0976 23.5688V53.6303H0.902588V23.5688H22.7884V32.9522H32.1984V23.5688H54.0976ZM49.9832 48.2684C49.9832 47.3128 49.2134 46.543 48.2578 46.543C47.3022 46.543 46.5324 47.3128 46.5324 48.2684C46.5324 49.224 47.3022 49.9937 48.2578 49.9937C49.2134 49.9937 49.9832 49.224 49.9832 48.2684ZM44.1832 48.2684C44.1832 47.3128 43.4135 46.543 42.4579 46.543C41.5023 46.543 40.7325 47.3128 40.7325 48.2684C40.7325 49.224 41.5023 49.9937 42.4579 49.9937C43.4135 49.9937 44.1832 49.224 44.1832 48.2684Z" fill="#83D7FC"/>
<path d="M44.7141 11.9025L54.0976 23.5688H32.1985L29.8625 12.3007V11.9025H44.7141Z" fill="#83D7FC"/>
<path d="M25.1376 11.9025V12.3007L22.8017 23.5688H0.902588L10.2993 11.9025H25.1376Z" fill="#83D7FC"/>
<path d="M54.0975 54.5195H0.902508C0.411437 54.5195 0 54.1214 0 53.617V23.5688C0 23.0777 0.398164 22.6663 0.902508 22.6663H22.7884C23.2794 22.6663 23.6909 23.0644 23.6909 23.5688C23.6909 24.0731 23.2927 24.4713 22.7884 24.4713H1.80502V52.7411H53.195V24.4713H32.1984C31.7073 24.4713 31.2958 24.0731 31.2958 23.5688C31.2958 23.0644 31.694 22.6663 32.1984 22.6663H54.0975C54.5886 22.6663 55 23.0644 55 23.5688V53.6303C55 54.1214 54.5886 54.5195 54.0975 54.5195Z" fill="#3D3D3D"/>
<path d="M54.0976 24.458C53.8321 24.458 53.58 24.3386 53.3942 24.1262L44.2762 12.7917H10.724L1.60603 24.1262C1.30077 24.5111 0.730064 24.5775 0.345171 24.2589C-0.0397232 23.9537 -0.106084 23.383 0.212449 22.9981L9.5959 11.3318C9.76843 11.1194 10.0206 11 10.2993 11H44.7141C44.9796 11 45.245 11.1194 45.4176 11.3318L54.801 22.9981C55.1063 23.383 55.0532 23.9537 54.6683 24.2589C54.4958 24.3916 54.2967 24.458 54.0976 24.458Z" fill="#3D3D3D"/>
<path d="M22.8016 24.458C22.7352 24.458 22.6822 24.458 22.6158 24.4448C22.1247 24.3386 21.8195 23.874 21.9124 23.383L24.2483 12.1149C24.3544 11.6238 24.819 11.3185 25.31 11.4114C25.8011 11.5176 26.1064 11.9822 26.0135 12.4732L23.6776 23.7413C23.5847 24.166 23.213 24.458 22.8016 24.458Z" fill="#3D3D3D"/>
<path d="M32.1984 24.458C31.7869 24.458 31.402 24.166 31.3224 23.7413L28.9865 12.4732C28.8803 11.9821 29.1988 11.5176 29.6899 11.4114C30.181 11.3052 30.6455 11.6238 30.7517 12.1148L33.0876 23.3829C33.1938 23.874 32.8753 24.3385 32.3842 24.4447C32.3311 24.458 32.2647 24.458 32.1984 24.458Z" fill="#3D3D3D"/>
<path d="M32.1982 33.8415H22.7883C22.2972 33.8415 21.8857 33.4433 21.8857 32.939V23.5555C21.8857 23.0645 22.2839 22.653 22.7883 22.653C23.2926 22.653 23.6908 23.0512 23.6908 23.5555V32.0497H31.2957V23.5555C31.2957 23.0645 31.6939 22.653 32.1982 22.653C32.7026 22.653 33.1008 23.0512 33.1008 23.5555V32.939C33.1008 33.4433 32.7026 33.8415 32.1982 33.8415Z" fill="#3D3D3D"/>
<path d="M42.4579 50.883C41.0112 50.883 39.8433 49.7018 39.8433 48.2684C39.8433 46.835 41.0245 45.6537 42.4579 45.6537C43.8913 45.6537 45.0725 46.835 45.0725 48.2684C45.0725 49.7018 43.9046 50.883 42.4579 50.883ZM42.4579 47.4455C42.0066 47.4455 41.635 47.8171 41.635 48.2684C41.635 48.7196 42.0066 49.0913 42.4579 49.0913C42.9091 49.0913 43.2808 48.7196 43.2808 48.2684C43.2808 47.8171 42.9091 47.4455 42.4579 47.4455Z" fill="#3D3D3D"/>
<path d="M48.2577 50.883C46.811 50.883 45.6431 49.7018 45.6431 48.2684C45.6431 46.835 46.8243 45.6537 48.2577 45.6537C49.6911 45.6537 50.8723 46.835 50.8723 48.2684C50.8723 49.7018 49.7044 50.883 48.2577 50.883ZM48.2577 47.4455C47.8064 47.4455 47.4348 47.8171 47.4348 48.2684C47.4348 48.7196 47.8064 49.0913 48.2577 49.0913C48.7089 49.0913 49.0806 48.7196 49.0806 48.2684C49.0806 47.8171 48.7222 47.4455 48.2577 47.4455Z" fill="#3D3D3D"/>
</svg>
